Coordinates
version=1
nRows=26
nColumns=22
inDegrees=yes

Units are S.I. units (second, meters, Newtons, ...)
If the header above contains a line with 'inDegrees', this indicates whether rotational values are in degrees (yes) or radians (no).

endheader
time	pelvis_tilt	pelvis_list	pelvis_rotation	pelvis_tx	pelvis_ty	pelvis_tz	hip_flexion_r	hip_adduction_r	hip_rotation_r	knee_angle_r	ankle_angle_r	subtalar_angle_r	hip_flexion_l	hip_adduction_l	hip_rotation_l	knee_angle_l	ankle_angle_l	subtalar_angle_l	lumbar_extension	lumbar_bending	lumbar_rotation
      0.01000000	     -1.12414281	     -7.30527682	      3.13267315	      1.13702775	      0.96529612	     -0.34286270	      2.41563301	      6.69579964	     -4.01923703	    -15.33222894	     10.77678798	      1.87185308	      0.33228137	     -7.57586810	      3.25944985	     -9.53012872	     12.57832487	     -1.47406123	      2.25989850	      6.81054538	     -7.22828671
      0.02000000	     -1.11302556	     -7.29373151	      3.12888228	      1.13692215	      0.96533444	     -0.34278183	      2.40543018	      6.68839368	     -4.01564662	    -15.32469057	     10.78110873	      1.88539931	      0.33173454	     -7.56697520	      3.26663405	     -9.54088907	     12.56228669	     -1.47037879	      2.23513260	      6.79385887	     -7.25761078
      0.03000000	     -1.11505693	     -7.29136926	      3.12618224	      1.13675706	      0.96536770	     -0.34266282	      2.41342910	      6.69276067	     -4.01738037	    -15.31521130	     10.78096347	      1.88682559	      0.33951569	     -7.57124399	      3.26393558	     -9.53097965	     12.56129599	     -1.46994204	      2.21742561	      6.78257301	     -7.26052154
      0.04000000	     -1.12018207	     -7.27240226	      3.12023385	      1.13660809	      0.96541559	     -0.34253939	      2.41480866	      6.68028214	     -4.00205168	    -15.29218842	     10.75998516	      1.90191393	      0.33537355	     -7.55886376	      3.22809483	     -9.49521370	     12.52040119	     -1.45815683	      2.20876465	      6.75485431	     -7.29273258
      0.05000000	     -1.12213632	     -7.26884112	      3.12005637	      1.13640788	      0.96544568	     -0.34240688	      2.42393665	      6.68436441	     -4.00247463	    -15.28186228	     10.75967717	      1.90311380	      0.34435056	     -7.56331428	      3.22433514	     -9.48356016	     12.51799878	     -1.45715015	      2.19031547	      6.74371764	     -7.29259601
      0.06000000	     -1.12880120	     -7.23773746	      3.10191700	      1.13624167	      0.96549313	     -0.34226925	      2.42532506	      6.66020201	     -3.96171220	    -15.25692244	     10.73632070	      1.92622155	      0.33161052	     -7.53824106	      3.18096455	     -9.43328657	     12.44212177	     -1.42293798	      2.18090702	      6.70415100	     -7.27211433
      0.07000000	     -1.13562251	     -7.23111950	      3.10318672	      1.13605540	      0.96550947	     -0.34215060	      2.43414213	      6.65983941	     -3.96313329	    -15.23877516	     10.73605553	      1.93141679	      0.33609749	     -7.54001440	      3.15259578	     -9.40323281	     12.43203765	     -1.41435160	      2.17250305	      6.69247418	     -7.27603498
      0.08000000	     -1.13795122	     -7.22795620	      3.11166038	      1.13581907	      0.96552055	     -0.34205157	      2.44614699	      6.66238352	     -3.96324319	    -15.22868474	     10.73593451	      1.93204114	      0.34801422	     -7.54389935	      3.14668354	     -9.38818124	     12.43027681	     -1.41334661	      2.15133180	      6.68669073	     -7.27352117
      0.09000000	     -1.15369091	     -7.22339794	      3.12273871	      1.13561614	      0.96552827	     -0.34195198	      2.46967832	      6.66291912	     -3.97249958	    -15.21650940	     10.71903666	      1.93832519	      0.35955029	     -7.54797161	      3.11278421	     -9.34462890	     12.37960989	     -1.39567997	      2.15300898	      6.67605195	     -7.26331635
      0.10000000	     -1.16656029	     -7.22058575	      3.13768500	      1.13537601	      0.96553016	     -0.34186485	      2.50028979	      6.66448812	     -3.97870770	    -15.21828775	     10.70909545	      1.94312391	      0.37894301	     -7.55229947	      3.10667998	     -9.31761131	     12.34881223	     -1.37787475	      2.14459353	      6.66839131	     -7.24589948
      0.11000000	     -1.16975654	     -7.21845902	      3.16110713	      1.13516304	      0.96553463	     -0.34179120	      2.51422161	      6.66845101	     -3.98038765	    -15.21311605	     10.70854049	      1.94387373	      0.39390793	     -7.55723801	      3.10105815	     -9.30131267	     12.34581875	     -1.37521147	      2.12903884	      6.66181621	     -7.23780442
      0.12000000	     -1.18577739	     -7.22265042	      3.18389910	      1.13496815	      0.96552725	     -0.34172249	      2.54543176	      6.67469522	     -4.01684184	    -15.21241012	     10.69985710	      1.94709093	      0.42435603	     -7.56721744	      3.11754741	     -9.29071394	     12.31516685	     -1.35948763	      2.12948191	      6.66237875	     -7.21033127
      0.13000000	     -1.19842370	     -7.22512071	      3.21543631	      1.13478651	      0.96551877	     -0.34166770	      2.57399842	      6.68034197	     -4.04323712	    -15.21620535	     10.69310611	      1.94986097	      0.46161264	     -7.57371742	      3.15239840	     -9.29818540	     12.30649035	     -1.34606864	      2.12875534	      6.65922860	     -7.19583641
      0.14000000	     -1.20504963	     -7.22659752	      3.24202693	      1.13465264	      0.96551682	     -0.34161413	      2.58836328	      6.68518614	     -4.06786048	    -15.21201449	     10.69169976	      1.95129474	      0.48944539	     -7.57909739	      3.17939724	     -9.30802060	     12.30472862	     -1.33883709	      2.12521128	      6.65733854	     -7.17724147
      0.15000000	     -1.20575284	     -7.22746780	      3.26722032	      1.13454165	      0.96552426	     -0.34156582	      2.59645536	      6.68951801	     -4.08936565	    -15.21083357	     10.68841495	      1.95241589	      0.51143442	     -7.58302715	      3.21317005	     -9.32286214	     12.30275715	     -1.33347432	      2.11650445	      6.65658801	     -7.15311977
      0.16000000	     -1.20371851	     -7.22730758	      3.29363604	      1.13444927	      0.96553386	     -0.34152546	      2.59959697	      6.69238466	     -4.11325948	    -15.20796996	     10.68576428	      1.95303099	      0.52953682	     -7.58555707	      3.25088740	     -9.33848340	     12.30134096	     -1.32900384	      2.10567740	      6.65607364	     -7.12466993
      0.17000000	     -1.19883424	     -7.22568235	      3.32098487	      1.13436464	      0.96554669	     -0.34149315	      2.59967437	      6.69374812	     -4.13687900	    -15.20597854	     10.68358151	      1.95301347	      0.54281951	     -7.58606714	      3.28916935	     -9.35182678	     12.29935296	     -1.32517020	      2.09184975	      6.65552447	     -7.09463467
      0.18000000	     -1.19179581	     -7.22244508	      3.34992275	      1.13428957	      0.96556302	     -0.34146556	      2.59707183	      6.69365354	     -4.16151490	    -15.20508248	     10.68194563	      1.95230612	      0.55147750	     -7.58501737	      3.32719347	     -9.36158536	     12.29604707	     -1.32160414	      2.07611626	      6.65405708	     -7.06212081
      0.19000000	     -1.18357398	     -7.21723073	      3.37805517	      1.13421705	      0.96558069	     -0.34145520	      2.59320567	      6.68980945	     -4.18916957	    -15.20413369	     10.68092716	      1.95060285	      0.55455922	     -7.58069136	      3.36424884	     -9.36484510	     12.29136053	     -1.31795268	      2.05806101	      6.65472949	     -7.03298091
      0.20000000	     -1.17509171	     -7.21064706	      3.40690798	      1.13415817	      0.96559743	     -0.34144773	      2.58718198	      6.68479449	     -4.21569664	    -15.20248377	     10.68078510	      1.94811194	      0.55380065	     -7.57544289	      3.39625015	     -9.36272350	     12.28467584	     -1.31468300	      2.04144548	      6.65410245	     -7.00446632
      0.21000000	     -1.16709323	     -7.20316868	      3.43432805	      1.13410886	      0.96561417	     -0.34144692	      2.58000693	      6.67846085	     -4.24072056	    -15.19870389	     10.68115565	      1.94500918	      0.55055022	     -7.56897260	      3.42471424	     -9.35705797	     12.27659623	     -1.31194060	      2.02734181	      6.65363819	     -6.97771643
      0.22000000	     -1.16643361	     -7.19914136	      3.45279295	      1.13406743	      0.96562081	     -0.34144545	      2.58117314	      6.67663683	     -4.24046070	    -15.19796216	     10.68120547	      1.94460722	      0.55384773	     -7.56559102	      3.42428782	     -9.35118237	     12.27609551	     -1.31179206	      2.02277930	      6.65992587	     -6.96996551
      0.23000000	     -1.16179820	     -7.19146471	      3.48005810	      1.13404259	      0.96563175	     -0.34145214	      2.57056028	      6.66934661	     -4.27102407	    -15.18458246	     10.68287372	      1.94171320	      0.55402117	     -7.55879655	      3.46045999	     -9.34925503	     12.26427299	     -1.30933282	      2.01732538	      6.65743001	     -6.92700843
      0.24000000	     -1.16116555	     -7.18768399	      3.49727267	      1.13401924	      0.96563398	     -0.34146699	      2.57028552	      6.66610787	     -4.27101345	    -15.18446487	     10.68285049	      1.94127071	      0.55609352	     -7.55489118	      3.46107266	     -9.34442131	     12.26349989	     -1.30920154	      2.01635936	      6.66467611	     -6.92086885
      0.25000000	     -1.16174173	     -7.17905263	      3.52647975	      1.13401917	      0.96563548	     -0.34149772	      2.55980987	      6.65599106	     -4.30605239	    -15.16433519	     10.68582657	      1.93846825	      0.55898338	     -7.54485915	      3.50499999	     -9.34029074	     12.25086314	     -1.30692507	      2.02160829	      6.66229087	     -6.88907616
      0.26000000	     -1.16134576	     -7.17553551	      3.54365822	      1.13401414	      0.96563234	     -0.34152384	      2.55896325	      6.65203691	     -4.30556972	    -15.16506444	     10.68587095	      1.93813838	      0.56065700	     -7.54153259	      3.50552940	     -9.33693505	     12.25033242	     -1.30684431	      2.02369300	      6.67052466	     -6.88351928
